<?xml version="1.0" encoding="UTF-8"?>
<svg version="1.1" xmlns="http://www.w3.org/2000/svg" width="500" height="500">
<path d="M0 0 C0.81452637 0.17160645 1.62905273 0.34321289 2.46826172 0.52001953 C49.30638212 10.6440019 90.04110718 34.99972152 116.36328125 75.61328125 C141.56508739 115.53186402 154.58862396 168.61963258 144.89990234 215.47485352 C144.3171026 217.99959238 143.67674437 220.49888189 143 223 C142.76925781 223.86157715 142.53851563 224.7231543 142.30078125 225.61083984 C136.85666448 245.15853162 127.52275646 263.06174561 115 279 C114.41927734 279.75369873 113.83855469 280.50739746 113.24023438 281.28393555 C84.86110922 317.58404298 45.53707778 341.09180715 0 348 C-4.6728605 348.55496048 -9.29737049 348.86809698 -14 349 C-15.01578125 349.03996094 -16.0315625 349.07992188 -17.078125 349.12109375 C-59.55094373 350.02817656 -98.59498347 333.033501 -129 304 C-133.42122124 299.65693166 -137.29365522 294.96238385 -141 290 C-141.73734375 289.01644531 -142.4746875 288.03289062 -143.234375 287.01953125 C-166.05264676 255.34934371 -174.84918103 217.98138313 -168.98046875 179.45703125 C-167.73033387 172.02229129 -165.61331368 165.0575118 -163 158 C-162.63132812 156.98164063 -162.26265625 155.96328125 -161.8828125 154.9140625 C-150.50922123 125.65647943 -128.88492768 102.22518189 -101 88 C-100.39349609 87.68933594 -99.78699219 87.37867188 -99.16210938 87.05859375 C-72.08619235 73.50645936 -40.58533231 71.29250704 -11.8125 80.625 C1.88200337 85.3591443 14.35256025 92.1049139 25 102 C26.36705078 103.24716797 26.36705078 103.24716797 27.76171875 104.51953125 C46.40601879 122.27972223 59.31153564 146.68857321 60.3359375 172.7265625 C60.74297052 199.23931424 53.92739648 222.28097302 35.49511719 242.02246094 C20.25018968 257.69009288 0.87517619 268.07327939 -21.27392578 268.38085938 C-42.30353181 268.34408897 -61.52635887 264.12514703 -77.04663086 249.05932617 C-78.37827246 247.71984732 -79.68982789 246.36048594 -81 245 C-81.66386719 244.35546875 -82.32773438 243.7109375 -83.01171875 243.046875 C-95.28838467 230.35638888 -100.3125 212.64892114 -100.3125 195.40478516 C-100.01577245 180.57852334 -93.93718981 165.48787562 -83.73828125 154.57421875 C-70.15245495 142.27065021 -55.64717834 136.09093403 -37.421875 136.62890625 C-24.25632378 137.43666169 -12.69692777 143.72972839 -3.6875 153.25 C4.41675207 163.51538595 7.36664571 174.71136573 7.125 187.5 C7.11597656 188.4178125 7.10695313 189.335625 7.09765625 190.28125 C7.07432432 192.52111556 7.04159235 194.76041183 7 197 C9.32007875 190.98635588 10.52757744 185.69656602 10.4375 179.25 C10.42505249 178.08102173 10.42505249 178.08102173 10.41235352 176.88842773 C9.99017624 162.26246404 3.62099376 150.75121329 -6 140 C-13.29949818 134.01712218 -20.8544698 129.49298338 -30 127 C-30.7734375 126.77699219 -31.546875 126.55398437 -32.34375 126.32421875 C-50.75010237 121.81466242 -68.91404973 126.15920063 -85.01171875 135.4453125 C-102.76565958 146.37668567 -113.87979674 163.88342537 -119.2734375 183.74609375 C-124.81306222 208.55527326 -118.74163717 233.75659554 -105.31835938 255.03613281 C-90.34008896 277.34820822 -67.09544652 291.93613805 -40.96875 297.44140625 C-13.62797543 302.58578883 14.00816095 296.61772952 38 283 C38.98226563 282.44570313 39.96453125 281.89140625 40.9765625 281.3203125 C48.6511329 276.69787673 55.34616224 270.9582196 62 265 C62.73089844 264.35417969 63.46179688 263.70835937 64.21484375 263.04296875 C86.80065483 241.84279025 98.50125669 209.81206616 99.92578125 179.39355469 C101.02255065 141.26558497 86.45293599 103.28039516 60.3828125 75.484375 C59.20332031 74.25460938 59.20332031 74.25460938 58 73 C57.13117188 72.05640625 56.26234375 71.1128125 55.3671875 70.140625 C29.16201374 42.24185766 -8.65585597 27.59711561 -46.44140625 26.07421875 C-77.44585012 25.33376426 -107.86648423 33.1573478 -135 48 C-136.04414063 48.56460938 -137.08828125 49.12921875 -138.1640625 49.7109375 C-150.82798011 56.82812602 -162.01768709 65.37227079 -172.42529297 75.47216797 C-173.98291256 76.98342121 -175.55536424 78.47801324 -177.12890625 79.97265625 C-209.77108645 111.35638019 -227.76174576 156.99499159 -229.1875 201.90625 C-229.94241863 241.79504972 -220.46177226 282.42534937 -198.77734375 316.20703125 C-197.3587342 318.43627482 -196.11651055 320.61078313 -195 323 C-209.99895293 316.74215871 -220.0955538 289.02274526 -226 275 C-246.81846662 221.95247596 -244.69907257 165.97622427 -222.27880859 113.88232422 C-212.35009882 91.50386917 -197.68985724 72.73921952 -181 55 C-180.34515625 54.29101562 -179.6903125 53.58203125 -179.015625 52.8515625 C-153.851871 26.50489699 -117.99843673 9.15794905 -83 1 C-81.59886963 0.66331299 -81.59886963 0.66331299 -80.16943359 0.31982422 C-54.86522534 -5.53135295 -25.38979186 -5.50550807 0 0 Z " fill="#0FA5E8" transform="translate(292,80)"/>
<path d="M0 0 C0.66 0 1.32 0 2 0 C2.33 1.65 2.66 3.3 3 5 C3.66 5 4.32 5 5 5 C6.125 8.75 6.125 8.75 5 11 C4.9310528 12.37342831 4.91532292 13.75002102 4.9375 15.125 C4.958125 16.40375 4.97875 17.6825 5 19 C7.475 19.99 7.475 19.99 10 21 C10 17.37 10 13.74 10 10 C10.33 10 10.66 10 11 10 C11.12677124 10.89416626 11.12677124 10.89416626 11.25610352 11.80639648 C15.6145683 41.79046498 23.70897081 70.49408281 40.22265625 96.20703125 C41.6412658 98.43627482 42.88348945 100.61078313 44 103 C29.00104707 96.74215871 18.9044462 69.02274526 13 55 C6.19708661 37.66549991 0.3822775 18.73159753 0 0 Z " fill="#20A5DF" transform="translate(53,300)"/>
<path d="M0 0 C0.66 0 1.32 0 2 0 C1.855625 1.16789062 1.71125 2.33578125 1.5625 3.5390625 C-0.23942536 19.37577015 -0.20861572 35.08903921 0 51 C-0.33 51 -0.66 51 -1 51 C-1.9802248 45.31160882 -2.11948801 39.82705667 -2.0625 34.0625 C-2.05798828 33.18787109 -2.05347656 32.31324219 -2.04882812 31.41210938 C-2.03714834 29.27470953 -2.01921689 27.13734537 -2 25 C-2.99 25.66 -3.98 26.32 -5 27 C-6.33333333 27 -7.66666667 27 -9 27 C-9.33 31.62 -9.66 36.24 -10 41 C-10.33 41 -10.66 41 -11 41 C-12.08707645 28.23939491 -11.82950418 15.77361199 -11 3 C-10.67 3 -10.34 3 -10 3 C-9.67 6.63 -9.34 10.26 -9 14 C-8.01 13.34 -7.02 12.68 -6 12 C-4.68 12 -3.36 12 -2 12 C-2.04125 10.7625 -2.0825 9.525 -2.125 8.25 C-2.13658291 4.98362038 -1.8568702 2.7853053 0 0 Z " fill="#18A6E4" transform="translate(63,256)"/>
<path d="M0 0 C0.66 0 1.32 0 2 0 C2 0.99 2 1.98 2 3 C3.65 3 5.3 3 7 3 C7.47308594 4.05316406 7.94617188 5.10632813 8.43359375 6.19140625 C12.50412361 15.11638132 16.93677659 23.59551314 22.1171875 31.92578125 C23.54374035 34.25502833 24.84205496 36.53174872 26 39 C14.20749185 34.07994693 4.75189619 13.34246579 0 2 C0 1.34 0 0.68 0 0 Z " fill="#2AA3DA" transform="translate(71,364)"/>
<path d="M0 0 C1.65 0.33 3.3 0.66 5 1 C5.66 2.98 6.32 4.96 7 7 C8.65 7 10.3 7 12 7 C12 7.66 12 8.32 12 9 C13.0209375 9.1546875 13.0209375 9.1546875 14.0625 9.3125 C17 10 17 10 20.4375 11.5 C23.71382656 12.87950592 26.4913496 13.5721158 30 14 C30 14.99 30 15.98 30 17 C30.99 16.67 31.98 16.34 33 16 C33 16.99 33 17.98 33 19 C33.99 19.33 34.98 19.66 36 20 C35.01 20.495 35.01 20.495 34 21 C31.61195907 19.87603686 29.31781939 18.69292797 27 17.4375 C20.99709167 14.308361 14.99452588 11.73897986 8.5625 9.625 C7.84255859 9.3870874 7.12261719 9.1491748 6.38085938 8.90405273 C1.31611114 7.29079787 -3.79663217 6.07708419 -9 5 C-9 4.67 -9 4.34 -9 4 C-5.7 4 -2.4 4 1 4 C0.67 2.68 0.34 1.36 0 0 Z " fill="#29A1D5" transform="translate(280,104)"/>
<path d="M0 0 C0 0.66 0 1.32 0 2 C-1.32 2 -2.64 2 -4 2 C-4 2.66 -4 3.32 -4 4 C-4.99 4.268125 -5.98 4.53625 -7 4.8125 C-9.77134 5.59071467 -12.3969142 6.54130327 -15.0625 7.625 C-18.49382109 8.95755188 -21.29919951 9.17622859 -25 9 C-25.66 9.33 -26.32 9.66 -27 10 C-38.93816534 11.37944564 -51.00500374 11.11265348 -63 11 C-62.67 10.01 -62.34 9.02 -62 8 C-60.92854736 8.01571045 -60.92854736 8.01571045 -59.83544922 8.03173828 C-39.72613521 8.2876809 -23.0062534 6.71371918 -3.84082031 0.51904297 C-2 0 -2 0 0 0 Z " fill="#2DA1D3" transform="translate(316,371)"/>
<path d="M0 0 C17.29134457 0.99168295 34.84828346 4.33918164 51.18359375 10.15234375 C48.05133689 11.15154786 45.99027326 11.115727 42.80859375 10.33984375 C42.01839844 10.1490625 41.22820312 9.95828125 40.4140625 9.76171875 C38.62922891 9.27409346 36.86912566 8.6963038 35.12109375 8.08984375 C28.59974591 6.00411357 28.59974591 6.00411357 22.18359375 7.15234375 C22.18359375 6.49234375 22.18359375 5.83234375 22.18359375 5.15234375 C21.11818359 5.06146484 21.11818359 5.06146484 20.03125 4.96875 C19.11214844 4.88496094 18.19304687 4.80117187 17.24609375 4.71484375 C15.87130859 4.59302734 15.87130859 4.59302734 14.46875 4.46875 C12.18359375 4.15234375 12.18359375 4.15234375 11.18359375 3.15234375 C8.49123599 2.91555659 5.81861219 2.7303635 3.12109375 2.58984375 C2.36248047 2.54666016 1.60386719 2.50347656 0.82226562 2.45898438 C-1.05706063 2.35260742 -2.93670869 2.25194441 -4.81640625 2.15234375 C-2.81640625 0.15234375 -2.81640625 0.15234375 0 0 Z " fill="#2E9FD3" transform="translate(266.81640625,76.84765625)"/>
<path d="M0 0 C0.84949219 0.60328125 1.69898438 1.2065625 2.57421875 1.828125 C0.76171875 2.515625 0.76171875 2.515625 -1.42578125 2.828125 C-2.86328125 1.515625 -2.86328125 1.515625 -4.42578125 -0.171875 C-7.58002232 -1.83661334 -9.49812694 -2.171875 -13.11328125 -2.171875 C-14.20640625 -2.171875 -15.29953125 -2.171875 -16.42578125 -2.171875 C-17.08578125 -2.831875 -17.74578125 -3.491875 -18.42578125 -4.171875 C-20.75031515 -4.54239493 -20.75031515 -4.54239493 -23.43359375 -4.5859375 C-24.41972656 -4.62460938 -25.40585938 -4.66328125 -26.421875 -4.703125 C-27.45441406 -4.7340625 -28.48695313 -4.765 -29.55078125 -4.796875 C-30.59105469 -4.83554688 -31.63132813 -4.87421875 -32.703125 -4.9140625 C-35.27716436 -5.00852266 -37.8511928 -5.09408714 -40.42578125 -5.171875 C-40.42578125 -5.501875 -40.42578125 -5.831875 -40.42578125 -6.171875 C-26.91156648 -9.37952909 -11.70585442 -7.76510027 0 0 Z " fill="#2C9ED1" transform="translate(277.42578125,224.171875)"/>
<path d="M0 0 C7.86889254 2.55739008 15.35022079 5.48085877 22.75 9.1875 C23.4409375 9.53232422 24.131875 9.87714844 24.84375 10.23242188 C27.5633736 11.62214953 29.82693536 12.82693536 32 15 C30.68 15 29.36 15 28 15 C28 14.34 28 13.68 28 13 C26.35 13.33 24.7 13.66 23 14 C22.67 13.34 22.34 12.68 22 12 C19.97536745 11.34786708 19.97536745 11.34786708 18 11 C18 10.01 18 9.02 18 8 C15.69 7.67 13.38 7.34 11 7 C11 6.34 11 5.68 11 5 C9.1128125 5.309375 9.1128125 5.309375 7.1875 5.625 C3.5985242 6.21335669 3.24926122 6.16617415 0 4 C0 2.68 0 1.36 0 0 Z " fill="#26A1D4" transform="translate(320,88)"/>
<path d="M0 0 C0.66 0 1.32 0 2 0 C1.7834375 1.75183594 1.7834375 1.75183594 1.5625 3.5390625 C-0.23942536 19.37577015 -0.20861572 35.08903921 0 51 C-0.33 51 -0.66 51 -1 51 C-1.91708257 45.5308946 -2.16050718 40.24726566 -2.16796875 34.70703125 C-2.17129715 33.83858078 -2.17462555 32.97013031 -2.17805481 32.07536316 C-2.18309136 30.25084967 -2.18546415 28.42632707 -2.18530273 26.60180664 C-2.18750153 23.81055729 -2.20572519 21.01969586 -2.22460938 18.22851562 C-2.22754152 16.45052218 -2.22952751 14.67252687 -2.23046875 12.89453125 C-2.23765427 12.0621846 -2.24483978 11.22983795 -2.25224304 10.37226868 C-2.22411002 3.25875918 -2.22411002 3.25875918 0 0 Z " fill="#32A0D2" transform="translate(63,256)"/>
<path d="M0 0 C0.66 0 1.32 0 2 0 C2.66 0.99 3.32 1.98 4 3 C6.05925139 3.72382467 6.05925139 3.72382467 8 4 C8.33 6.64 8.66 9.28 9 12 C8.01 12.33 7.02 12.66 6 13 C5.26676204 15.01508358 5.26676204 15.01508358 5 17 C4.15838146 14.91999989 3.32699237 12.83585854 2.5 10.75 C2.0359375 9.58984375 1.571875 8.4296875 1.09375 7.234375 C0 4 0 4 0 0 Z " fill="#1DA3DD" transform="translate(127,320)"/>
<path d="M0 0 C0.66 0 1.32 0 2 0 C2 1.32 2 2.64 2 4 C2.66 4 3.32 4 4 4 C5.67177446 10.35599654 6.33838095 16.31159034 6.3125 22.875 C6.32861328 23.71546875 6.34472656 24.5559375 6.36132812 25.421875 C6.36197266 26.22882813 6.36261719 27.03578125 6.36328125 27.8671875 C6.36775269 28.95169189 6.36775269 28.95169189 6.37231445 30.05810547 C5.90076174 32.51760072 4.8848953 33.4157036 3 35 C3.01571045 34.38592285 3.0314209 33.7718457 3.04760742 33.13916016 C3.11076194 30.30120411 3.14924177 27.46339667 3.1875 24.625 C3.21263672 23.65949219 3.23777344 22.69398438 3.26367188 21.69921875 C3.32399266 15.70735451 2.63769785 10.73551999 0.6496582 5.07177734 C0 3 0 3 0 0 Z " fill="#2CA1D4" transform="translate(299,237)"/>
<path d="M0 0 C2.78004569 4.17006853 3.77112321 8.58136926 5.125 13.375 C5.40214844 14.32117188 5.67929687 15.26734375 5.96484375 16.2421875 C6.22652344 17.16 6.48820312 18.0778125 6.7578125 19.0234375 C7.11576904 20.27519775 7.11576904 20.27519775 7.48095703 21.55224609 C8.02204452 24.10395972 8.09223593 26.3994108 8 29 C7.34 28.67 6.68 28.34 6 28 C5.51747837 25.80511502 5.1141529 23.59259777 4.75 21.375 C3.46186436 14.83420765 1.83864497 11.51606863 -3 7 C-2.67 6.34 -2.34 5.68 -2 5 C-1.34 5 -0.68 5 0 5 C0 3.35 0 1.7 0 0 Z " fill="#23A2DC" transform="translate(427,197)"/>
<path d="M0 0 C0.99 1.32 1.98 2.64 3 4 C-0.75 7 -0.75 7 -3 7 C-3 8.65 -3 10.3 -3 12 C-3.66 12 -4.32 12 -5 12 C-4.67 14.31 -4.34 16.62 -4 19 C-4.66 19 -5.32 19 -6 19 C-6.33 19.99 -6.66 20.98 -7 22 C-7.99 22 -8.98 22 -10 22 C-8.08830768 13.77061973 -4.46958365 7.12684298 0 0 Z " fill="#23A1D9" transform="translate(204,240)"/>
<path d="M0 0 C0.66 0.33 1.32 0.66 2 1 C3.70702735 1.06996014 5.41668003 1.08440154 7.125 1.0625 C8.03507812 1.05347656 8.94515625 1.04445313 9.8828125 1.03515625 C10.58148438 1.02355469 11.28015625 1.01195313 12 1 C9.43742011 2.7083866 7.3011165 3.78008785 4.47265625 4.91015625 C3.59802734 5.26013672 2.72339844 5.61011719 1.82226562 5.97070312 C0.45618164 6.51114258 0.45618164 6.51114258 -0.9375 7.0625 C-1.84435547 7.42666016 -2.75121094 7.79082031 -3.68554688 8.16601562 C-11.06910462 11.10531271 -11.06910462 11.10531271 -15 12 C-15 11.34 -15 10.68 -15 10 C-14.01 10 -13.02 10 -12 10 C-12 9.34 -12 8.68 -12 8 C-10.68 8 -9.36 8 -8 8 C-8 7.34 -8 6.68 -8 6 C-6.35 6 -4.7 6 -3 6 C-3 5.01 -3 4.02 -3 3 C-2.34 3 -1.68 3 -1 3 C-0.67 2.01 -0.34 1.02 0 0 Z " fill="#29A1D6" transform="translate(175,113)"/>
<path d="M0 0 C-6.49819447 6.49819447 -18.81647863 6.23136721 -27.34960938 6.27685547 C-32.56816708 6.23779441 -37.78355138 6.15410483 -43 6 C-43 5.67 -43 5.34 -43 5 C-34.75 5 -26.5 5 -18 5 C-18 4.34 -18 3.68 -18 3 C-15.36 3 -12.72 3 -10 3 C-10 2.34 -10 1.68 -10 1 C-6.59437148 0.22157062 -3.49234244 -0.09978121 0 0 Z " fill="#2CA2D6" transform="translate(297,342)"/>
<path d="M0 0 C0.99 0.33 1.98 0.66 3 1 C3 1.66 3 2.32 3 3 C2.01 3 1.02 3 0 3 C0 3.66 0 4.32 0 5 C-3.75 7 -3.75 7 -6 7 C-8.2773501 9.81509993 -8.2773501 9.81509993 -8 13 C-9.32 12.67 -10.64 12.34 -12 12 C-12 12.66 -12 13.32 -12 14 C-13.32 14.33 -14.64 14.66 -16 15 C-12.02428766 8.41951062 -6.73740411 3.75459053 0 0 Z " fill="#26A1D6" transform="translate(221,225)"/>
<path d="M0 0 C0 0.33 0 0.66 0 1 C-1.27061279 1.03758423 -1.27061279 1.03758423 -2.56689453 1.07592773 C-5.73155558 1.17147857 -8.89607563 1.27068566 -12.06054688 1.37231445 C-13.42606176 1.41543088 -14.79162252 1.45712068 -16.15722656 1.49731445 C-18.1283719 1.55558554 -20.09934668 1.61953736 -22.0703125 1.68359375 C-23.25383301 1.72025146 -24.43735352 1.75690918 -25.65673828 1.79467773 C-29.00290856 1.92502755 -29.00290856 1.92502755 -32.24560547 2.64477539 C-35 3 -35 3 -38 1 C-25.25534474 -1.19938581 -12.8515365 -1.80372442 0 0 Z " fill="#329DCB" transform="translate(260,156)"/>
<path d="M0 0 C0.33 0 0.66 0 1 0 C1.33 3.63 1.66 7.26 2 11 C1.34 11 0.68 11 0 11 C-0.144375 12.299375 -0.28875 13.59875 -0.4375 14.9375 C-0.875 18.875 -0.875 18.875 -2 20 C-2.23481693 22.18292774 -2.41363323 24.37203174 -2.5625 26.5625 C-2.64628906 27.76003906 -2.73007812 28.95757812 -2.81640625 30.19140625 C-2.87699219 31.11824219 -2.93757813 32.04507813 -3 33 C-3.66 32.67 -4.32 32.34 -5 32 C-4.6059944 21.02694404 -2.42355426 10.6749111 0 0 Z " fill="#2AA2D6" transform="translate(58,226)"/>
<path d="M0 0 C0.66 0 1.32 0 2 0 C2 0.66 2 1.32 2 2 C2.66 2.33 3.32 2.66 4 3 C3.55269531 3.4846875 3.10539063 3.969375 2.64453125 4.46875 C-1.47777883 9.03932834 -4.9238704 13.66993213 -8 19 C-9.0013988 15.99580359 -9.51421457 13.12290635 -10 10 C-6.535 9.505 -6.535 9.505 -3 9 C-3 7.35 -3 5.7 -3 4 C-1.68 3.67 -0.36 3.34 1 3 C0.67 2.01 0.34 1.02 0 0 Z " fill="#24A0D6" transform="translate(188,225)"/>
<path d="M0 0 C3.04088016 3.5217031 5.00159113 6.8187337 6.75 11.125 C7.17796875 12.15882813 7.6059375 13.19265625 8.046875 14.2578125 C9 17 9 17 9 20 C8.34 20 7.68 20 7 20 C7 18.35 7 16.7 7 15 C6.34 15 5.68 15 5 15 C4.67 14.34 4.34 13.68 4 13 C3.01 12.67 2.02 12.34 1 12 C1.04125 11.2575 1.0825 10.515 1.125 9.75 C1.18720445 7.01480713 1.18720445 7.01480713 -0.0625 4.875 C-0.371875 4.25625 -0.68125 3.6375 -1 3 C-0.67 2.01 -0.34 1.02 0 0 Z " fill="#249FD9" transform="translate(338,209)"/>
<path d="M0 0 C0.33 0.66 0.66 1.32 1 2 C2.98 2 4.96 2 7 2 C7 1.34 7 0.68 7 0 C14.59 0 22.18 0 30 0 C30 0.33 30 0.66 30 1 C28.99582031 1.03738281 27.99164063 1.07476562 26.95703125 1.11328125 C18.90308979 1.47833522 11.41245825 2.32345825 3.57421875 4.37890625 C1 5 1 5 -2 5 C-1.125 1.125 -1.125 1.125 0 0 Z " fill="#31A3D7" transform="translate(222,203)"/>
<path d="M0 0 C0 3.51716303 -0.82445585 4.37121748 -3 7 C-2.01 7.33 -1.02 7.66 0 8 C-3.47739526 10.9660136 -6.88429232 13.03161807 -11 15 C-11.99 15.66 -12.98 16.32 -14 17 C-12.70396588 14.17131143 -11.30810402 12.0298979 -9.1796875 9.765625 C-8.64472656 9.19199219 -8.10976562 8.61835938 -7.55859375 8.02734375 C-7.00300781 7.44082031 -6.44742188 6.85429687 -5.875 6.25 C-5.31167969 5.64800781 -4.74835938 5.04601562 -4.16796875 4.42578125 C-2.78275854 2.94665849 -1.3919271 1.47280359 0 0 Z " fill="#25A1DA" transform="translate(111,135)"/>
<path d="M0 0 C0.33 0 0.66 0 1 0 C0.97679687 1.18078125 0.95359375 2.3615625 0.9296875 3.578125 C0.91092503 5.13541033 0.89272534 6.69270252 0.875 8.25 C0.85824219 9.02730469 0.84148437 9.80460937 0.82421875 10.60546875 C0.78858059 14.77513348 1.05047837 17.28372438 3 21 C3.1953125 24.453125 3.1953125 24.453125 3.125 28.25 C3.10695312 29.51328125 3.08890625 30.7765625 3.0703125 32.078125 C3.04710937 33.04234375 3.02390625 34.0065625 3 35 C-1.34468265 28.48297602 -1.17875642 20.25202468 -1.1875 12.625 C-1.18830566 11.94735596 -1.18911133 11.26971191 -1.18994141 10.5715332 C-1.14934029 6.93141714 -0.85432835 3.54033667 0 0 Z " fill="#2DA1D3" transform="translate(193,264)"/>
<path d="M0 0 C0.66 0.33 1.32 0.66 2 1 C-1.08687549 4.88064347 -4.01050915 8.00788186 -8 11 C-8.845625 11.763125 -9.69125 12.52625 -10.5625 13.3125 C-11.366875 13.869375 -12.17125 14.42625 -13 15 C-15.15234375 14.60546875 -15.15234375 14.60546875 -17 14 C-11.54006063 9.02033308 -6.00073223 4.31660302 0 0 Z " fill="#25A0D9" transform="translate(138,112)"/>
<path d="M0 0 C1.65 0.33 3.3 0.66 5 1 C5.66 2.98 6.32 4.96 7 7 C1.36718401 7.2396943 -3.54538831 6.38529821 -9 5 C-9 4.67 -9 4.34 -9 4 C-5.7 4 -2.4 4 1 4 C0.67 2.68 0.34 1.36 0 0 Z " fill="#0FA4E3" transform="translate(280,104)"/>
<path d="M0 0 C1.32 0 2.64 0 4 0 C4 0.66 4 1.32 4 2 C6.64 2 9.28 2 12 2 C12.66 3.32 13.32 4.64 14 6 C14.99 6 15.98 6 17 6 C17 6.66 17 7.32 17 8 C18.32 8.33 19.64 8.66 21 9 C19 10 19 10 17.13647461 9.41088867 C16.03057983 8.91939331 16.03057983 8.91939331 14.90234375 8.41796875 C13.70061523 7.88526367 13.70061523 7.88526367 12.47460938 7.34179688 C11.21874023 6.77041992 11.21874023 6.77041992 9.9375 6.1875 C8.67583008 5.63352539 8.67583008 5.63352539 7.38867188 5.06835938 C1.12952922 2.25905844 1.12952922 2.25905844 0 0 Z " fill="#28A3D8" transform="translate(198,409)"/>
<path d="M0 0 C0.66 0.66 1.32 1.32 2 2 C1.67257794 5.79473769 -0.52114273 8.63229071 -2.5625 11.75 C-3.20316406 12.73484375 -3.84382813 13.7196875 -4.50390625 14.734375 C-4.99761719 15.48203125 -5.49132812 16.2296875 -6 17 C-6.33 15.68 -6.66 14.36 -7 13 C-6.34 13 -5.68 13 -5 13 C-5.33 11.35 -5.66 9.7 -6 8 C-5.01 8 -4.02 8 -3 8 C-3.061875 7.236875 -3.12375 6.47375 -3.1875 5.6875 C-3 3 -3 3 -1.5 1.1875 C-1.005 0.795625 -0.51 0.40375 0 0 Z " fill="#1FA4DF" transform="translate(415,340)"/>
<path d="M0 0 C1.07318928 3.21956783 0.870689 3.90421689 0 7 C0 7.99 0 8.98 0 10 C0 10.66 0 11.32 0 12 C-1.65 11.67 -3.3 11.34 -5 11 C-5 11.99 -5 12.98 -5 14 C-5.99 14 -6.98 14 -8 14 C-6.6744419 10.37723685 -5.05653045 7.36494652 -2.875 4.1875 C-2.33617187 3.39730469 -1.79734375 2.60710937 -1.2421875 1.79296875 C-0.83226562 1.20128906 -0.42234375 0.60960937 0 0 Z " fill="#1CA3DF" transform="translate(148,203)"/>
<path d="M0 0 C1.72926874 0.31193464 3.45841044 0.62457362 5.1875 0.9375 C6.15042969 1.11152344 7.11335937 1.28554688 8.10546875 1.46484375 C10.74239972 1.9523735 13.3719905 2.46671105 16 3 C15.67 4.32 15.34 5.64 15 7 C13.35 7.33 11.7 7.66 10 8 C9.67 7.01 9.34 6.02 9 5 C8.01 5 7.02 5 6 5 C6 4.01 6 3.02 6 2 C3.03 1.505 3.03 1.505 0 1 C0 0.67 0 0.34 0 0 Z " fill="#1BA3DB" transform="translate(238,375)"/>
<path d="M0 0 C0.66 0 1.32 0 2 0 C0.45173401 4.95757898 -1.51780938 9.63810401 -3.625 14.375 C-3.94984375 15.11105469 -4.2746875 15.84710938 -4.609375 16.60546875 C-5.40384503 18.40470969 -6.20158771 20.20250496 -7 22 C-7.33 22 -7.66 22 -8 22 C-8.33 20.02 -8.66 18.04 -9 16 C-8.01 16 -7.02 16 -6 16 C-6 14.35 -6 12.7 -6 11 C-5.34 11 -4.68 11 -4 11 C-3.67 8.69 -3.34 6.38 -3 4 C-2.34 4 -1.68 4 -1 4 C-0.67 2.68 -0.34 1.36 0 0 Z " fill="#29A2D8" transform="translate(81,202)"/>
<path d="M0 0 C6.71539173 1.29975324 12.72019113 3.29928888 19 6 C15.71023192 7.09658936 14.28696233 6.79953138 11 6 C11 6.99 11 7.98 11 9 C10.34 9 9.68 9 9 9 C9.33 7.35 9.66 5.7 10 4 C8.35 3.67 6.7 3.34 5 3 C5 3.66 5 4.32 5 5 C4.01 5.33 3.02 5.66 2 6 C2.33 4.68 2.66 3.36 3 2 C2.01 2 1.02 2 0 2 C0 1.34 0 0.68 0 0 Z " fill="#249FD5" transform="translate(272,159)"/>
<path d="M0 0 C0 4.00886968 -1.79016755 5.71873364 -4 9 C-4.76939681 11.22602615 -4.76939681 11.22602615 -5 13 C-7.31 13 -9.62 13 -12 13 C-8.19524578 8.43969176 -4.25030379 4.14910608 0 0 Z " fill="#1F9FDA" transform="translate(362,337)"/>
<path d="M0 0 C1.98 0 3.96 0 6 0 C2.74304853 4.61401459 -1.24286757 8.00362438 -6 11 C-6.66 11 -7.32 11 -8 11 C-7.67 10.01 -7.34 9.02 -7 8 C-6.01 8 -5.02 8 -4 8 C-3.855625 7.38125 -3.71125 6.7625 -3.5625 6.125 C-3 4 -3 4 -2 2 C-1.34 2 -0.68 2 0 2 C0 1.34 0 0.68 0 0 Z " fill="#1FA4DD" transform="translate(372,388)"/>
<path d="M0 0 C0.66 0 1.32 0 2 0 C2 0.66 2 1.32 2 2 C2.99 2 3.98 2 5 2 C7.11161731 11.41002278 7.11161731 11.41002278 8 16 C8.66 16 9.32 16 10 16 C10 17.98 10 19.96 10 22 C8.31752015 19.47628023 7.20792959 17.32228241 6.0546875 14.55078125 C5.70019531 13.70322266 5.34570312 12.85566406 4.98046875 11.98242188 C4.61566406 11.10134766 4.25085938 10.22027344 3.875 9.3125 C3.50246094 8.41982422 3.12992187 7.52714844 2.74609375 6.60742188 C1.82789876 4.40610824 0.9126506 2.20361674 0 0 Z " fill="#2FA1D7" transform="translate(375,186)"/>
<path d="M0 0 C1.32 0 2.64 0 4 0 C4 0.66 4 1.32 4 2 C5.32 2.33 6.64 2.66 8 3 C6.52312468 4.16956591 5.04343707 5.33558146 3.5625 6.5 C2.32693359 7.47453125 2.32693359 7.47453125 1.06640625 8.46875 C-1 10 -1 10 -2 10 C-2 8.02 -2 6.04 -2 4 C-1.01 4.495 -1.01 4.495 0 5 C0 3.35 0 1.7 0 0 Z " fill="#20A3DB" transform="translate(130,137)"/>
<path d="M0 0 C5.61 0 11.22 0 17 0 C14.00801423 1.49599289 12.02352143 2.35829058 8.890625 3.0703125 C7.75947266 3.33134766 7.75947266 3.33134766 6.60546875 3.59765625 C5.82816406 3.77167969 5.05085937 3.94570312 4.25 4.125 C3.06083984 4.39763672 3.06083984 4.39763672 1.84765625 4.67578125 C-0.10052366 5.12175014 -2.05012731 5.56149151 -4 6 C-4 5.01 -4 4.02 -4 3 C-2.68 2.67 -1.36 2.34 0 2 C0 1.34 0 0.68 0 0 Z " fill="#2AA1D2" transform="translate(192,108)"/>
<path d="M0 0 C1.57159226 3.14318453 0.04018399 5.92933389 -0.9375 9.125 C-1.13279297 9.78371094 -1.32808594 10.44242187 -1.52929688 11.12109375 C-2.01304986 12.74933552 -2.50569075 14.37493182 -3 16 C-3.33 16 -3.66 16 -4 16 C-4 13.03 -4 10.06 -4 7 C-4.66 7 -5.32 7 -6 7 C-6 6.01 -6 5.02 -6 4 C-5.01 3.67 -4.02 3.34 -3 3 C-1.33289654 1.50014391 -1.33289654 1.50014391 0 0 Z " fill="#24A2DC" transform="translate(175,251)"/>
<path d="M0 0 C-4.9748792 3.31658613 -11.03568353 4.38479461 -17 4 C-17 4.66 -17 5.32 -17 6 C-18.98 6 -20.96 6 -23 6 C-19.52819555 3.6854637 -16.00204877 2.55044236 -12.0625 1.3125 C-11.34642578 1.07466797 -10.63035156 0.83683594 -9.89257812 0.59179688 C-6.16030285 -0.58772664 -3.73134196 -1.18041207 0 0 Z " fill="#2CA0D2" transform="translate(222,159)"/>
<path d="M0 0 C0.33 0 0.66 0 1 0 C0.855625 0.969375 0.71125 1.93875 0.5625 2.9375 C-0.06047442 7.28052169 -0.53507859 11.63765234 -1 16 C-1.66 16 -2.32 16 -3 16 C-3.33 19.3 -3.66 22.6 -4 26 C-4.33 26 -4.66 26 -5 26 C-5.32784311 19.95949073 -4.13093049 14.85891514 -2.5 9.0625 C-2.26152344 8.18787109 -2.02304688 7.31324219 -1.77734375 6.41210938 C-1.19273616 4.27244561 -0.60015656 2.13534428 0 0 Z " fill="#329FD0" transform="translate(128,240)"/>
<path d="M0 0 C3.74123976 4.2954975 6.34151874 8.99900452 9 14 C5.6712685 12.59308516 3.86832628 10.99308419 1.6875 8.125 C1.15511719 7.44695312 0.62273437 6.76890625 0.07421875 6.0703125 C-1 4 -1 4 -0.66796875 1.7421875 C-0.44753906 1.16726563 -0.22710937 0.59234375 0 0 Z " fill="#3AA6D4" transform="translate(88,389)"/>
<path d="M0 0 C-3.02272532 3.25524265 -6.25718301 5.61820737 -10 8 C-10.66 7.67 -11.32 7.34 -12 7 C-11.34 5.68 -10.68 4.36 -10 3 C-9.34 3.33 -8.68 3.66 -8 4 C-8.33 3.01 -8.66 2.02 -9 1 C-5.92677456 0.08941469 -3.19902639 -0.08886184 0 0 Z " fill="#27A1D6" transform="translate(316,331)"/>
<path d="M0 0 C1.32 0.33 2.64 0.66 4 1 C2.56691865 4.95906817 0.66858051 8.28718181 -1.625 11.8125 C-2.57246094 13.27623047 -2.57246094 13.27623047 -3.5390625 14.76953125 C-4.26222656 15.87361328 -4.26222656 15.87361328 -5 17 C-6 14 -6 14 -5.22265625 11.95703125 C-4.83980469 11.24933594 -4.45695312 10.54164063 -4.0625 9.8125 C-3.68222656 9.09707031 -3.30195312 8.38164062 -2.91015625 7.64453125 C-2.60980469 7.10183594 -2.30945313 6.55914062 -2 6 C-1.34 6 -0.68 6 0 6 C0 4.02 0 2.04 0 0 Z " fill="#2AA0D4" transform="translate(91,181)"/>
<path d="M0 0 C-0.33 1.32 -0.66 2.64 -1 4 C-1.66 4 -2.32 4 -3 4 C-3 4.66 -3 5.32 -3 6 C-6.3 6.66 -9.6 7.32 -13 8 C-9.81692689 4.43495812 -5.03655764 0 0 0 Z " fill="#24A0D8" transform="translate(153,104)"/>
<path d="M0 0 C7.34918342 -0.43230491 13.90215087 1.18225815 21 3 C21 3.99 21 4.98 21 6 C19.98292969 5.70996094 19.98292969 5.70996094 18.9453125 5.4140625 C12.67075691 3.65857742 6.40723336 2.18137708 0 1 C0 0.67 0 0.34 0 0 Z " fill="#30A0D2" transform="translate(252,204)"/>
<path d="M0 0 C3.65316671 1.24976756 4.78065836 1.67098753 7 5 C7.845625 5.433125 8.69125 5.86625 9.5625 6.3125 C12 8 12 8 12.8125 11.1875 C12.874375 12.115625 12.93625 13.04375 13 14 C11.88085919 12.88085919 10.76206063 11.76137493 9.64453125 10.640625 C8.39693967 9.39599682 7.14323731 8.15749029 5.88671875 6.921875 C5.16097656 6.20515625 4.43523437 5.4884375 3.6875 4.75 C2.99011719 4.06421875 2.29273438 3.3784375 1.57421875 2.671875 C0 1 0 1 0 0 Z " fill="#2CA3D1" transform="translate(347,149)"/>
<path d="M0 0 C1.08062462 3.24187386 0.96405231 3.89709861 0.00390625 7.01171875 C-0.33930664 8.14770508 -0.33930664 8.14770508 -0.68945312 9.30664062 C-0.93630859 10.09232422 -1.18316406 10.87800781 -1.4375 11.6875 C-1.68048828 12.48478516 -1.92347656 13.28207031 -2.17382812 14.10351562 C-2.77479738 16.07139534 -3.3863905 18.03602495 -4 20 C-4.33 20 -4.66 20 -5 20 C-5.09765625 13.84765625 -5.09765625 13.84765625 -5 12 C-4.67 11.67 -4.34 11.34 -4 11 C-3.63239269 8.67182036 -3.29758419 6.3381615 -3 4 C-2.34 4 -1.68 4 -1 4 C-0.67 2.68 -0.34 1.36 0 0 Z " fill="#2BA2D2" transform="translate(72,224)"/>
<path d="M0 0 C0.99 0.495 0.99 0.495 2 1 C2 1.99 2 2.98 2 4 C2.66 4 3.32 4 4 4 C4.33 10.27 4.66 16.54 5 23 C4.67 23 4.34 23 4 23 C3.52047335 20.29172996 3.04136769 17.58338656 2.5625 14.875 C2.42779297 14.11445313 2.29308594 13.35390625 2.15429688 12.5703125 C1.41440873 8.38362839 0.69026923 4.19522853 0 0 Z " fill="#38A1CE" transform="translate(387,216)"/>
<path d="M0 0 C1.98 0 3.96 0 6 0 C8.125 6.75 8.125 6.75 7 9 C5.83037314 7.69013727 4.66437056 6.3770374 3.5 5.0625 C2.8503125 4.33160156 2.200625 3.60070312 1.53125 2.84765625 C0 1 0 1 0 0 Z " fill="#22A8D8" transform="translate(159,378)"/>
<path d="M0 0 C4.82675589 2.41337795 7.69984002 5.86062408 11 10 C10.01 10.33 9.02 10.66 8 11 C7.67 10.01 7.34 9.02 7 8 C5.68 8.33 4.36 8.66 3 9 C3.0928125 7.824375 3.0928125 7.824375 3.1875 6.625 C3.125625 5.75875 3.06375 4.8925 3 4 C2.01 3.34 1.02 2.68 0 2 C0 1.34 0 0.68 0 0 Z " fill="#28A0D5" transform="translate(280,227)"/>
<path d="M0 0 C0.33 0 0.66 0 1 0 C1.33 2.97 1.66 5.94 2 9 C1.01 9.495 1.01 9.495 0 10 C-0.33 9.34 -0.66 8.68 -1 8 C-1.66 9.98 -2.32 11.96 -3 14 C-3.66 14 -4.32 14 -5 14 C-4.54636829 12.41531323 -4.08688548 10.83230076 -3.625 9.25 C-3.36976563 8.36828125 -3.11453125 7.4865625 -2.8515625 6.578125 C-2.0790066 4.23919428 -1.16374324 2.16557438 0 0 Z " fill="#27A0D7" transform="translate(134,226)"/>
<path d="M0 0 C0 3.61806453 -0.86311787 4.20561568 -3 7 C-3.28875 7.845625 -3.5775 8.69125 -3.875 9.5625 C-5.30823489 12.66784227 -6.9958392 13.4979196 -10 15 C-8.59601721 10.89889238 -6.62912962 8.01910841 -3.875 4.6875 C-3.15054688 3.80449219 -2.42609375 2.92148438 -1.6796875 2.01171875 C-1.12539062 1.34785156 -0.57109375 0.68398437 0 0 Z " fill="#2D9FD3" transform="translate(96,152)"/>
<path d="M0 0 C0.66 0.66 1.32 1.32 2 2 C1.9375 4 1.9375 4 1 6 C-1.5625 7.25 -1.5625 7.25 -4 8 C-3.50168276 4.31245243 -2.89932357 2.39509338 0 0 Z " fill="#1BA4E3" transform="translate(362,395)"/>
<path d="M0 0 C2.80057759 2.80057759 3.91668242 4.80689232 4.1953125 8.796875 C4.17210937 9.77140625 4.14890625 10.7459375 4.125 11.75 C4.10695313 12.73484375 4.08890625 13.7196875 4.0703125 14.734375 C4.03550781 15.85585938 4.03550781 15.85585938 4 17 C1.17136025 11.6636166 -0.37974335 6.07589367 0 0 Z " fill="#2CA5D8" transform="translate(55,313)"/>
<path d="M0 0 C1.98 0.66 3.96 1.32 6 2 C1.25 6.875 1.25 6.875 -1 8 C-1.625 5.125 -1.625 5.125 -2 2 C-1.34 1.34 -0.68 0.68 0 0 Z " fill="#1EA2DB" transform="translate(195,217)"/>
<path d="M0 0 C1.98 0 3.96 0 6 0 C2.54319097 2.76544722 -1.14341602 4.84921278 -5 7 C-5.33 5.35 -5.66 3.7 -6 2 C-4.02 2 -2.04 2 0 2 C0 1.34 0 0.68 0 0 Z " fill="#27A0D1" transform="translate(206,212)"/>
<path d="M0 0 C0.66 0 1.32 0 2 0 C1.34 4.62 0.68 9.24 0 14 C-0.66 13.67 -1.32 13.34 -2 13 C-2.05447047 11.58376784 -2.09300508 10.16691809 -2.125 8.75 C-2.14820313 7.96109375 -2.17140625 7.1721875 -2.1953125 6.359375 C-1.9828378 3.79268059 -1.28654105 2.2083933 0 0 Z " fill="#24A3D9" transform="translate(63,256)"/>
<path d="M0 0 C0 0.99 0 1.98 0 3 C-0.66 3 -1.32 3 -2 3 C-2 3.66 -2 4.32 -2 5 C-5.47307692 7.10865385 -5.47307692 7.10865385 -8.140625 6.55859375 C-9.06101563 6.28208984 -9.06101563 6.28208984 -10 6 C-8.71283353 4.99421411 -7.42011342 3.99553202 -6.125 3 C-5.40570313 2.443125 -4.68640625 1.88625 -3.9453125 1.3125 C-2 0 -2 0 0 0 Z " fill="#23A2D8" transform="translate(182,174)"/>
<path d="M0 0 C9.41002278 -0.3690205 9.41002278 -0.3690205 14 2 C14 2.66 14 3.32 14 4 C9.03083364 3.48594831 4.70973649 2.76615118 0 1 C0 0.67 0 0.34 0 0 Z " fill="#2CA2D6" transform="translate(219,419)"/>
<path d="M0 0 C0.66 0.33 1.32 0.66 2 1 C1.01 2.98 0.02 4.96 -1 7 C-3.31 6.67 -5.62 6.34 -8 6 C-5.63404067 3.38499232 -3.13950774 1.61000397 0 0 Z " fill="#24A2D9" transform="translate(335,360)"/>
<path d="M0 0 C0 0.66 0 1.32 0 2 C-0.66 2 -1.32 2 -2 2 C-2.226875 2.78375 -2.45375 3.5675 -2.6875 4.375 C-4 7 -4 7 -6.625 8.3125 C-7.40875 8.539375 -8.1925 8.76625 -9 9 C-7.67183131 4.6532661 -5.0855272 0 0 0 Z " fill="#1AA4E1" transform="translate(91,164)"/>
<path d="M0 0 C0.66 0.33 1.32 0.66 2 1 C-1.33333333 4.33333333 -4.66666667 7.66666667 -8 11 C-7.125 6.25 -7.125 6.25 -6 4 C-5.01 4 -4.02 4 -3 4 C-3 3.01 -3 2.02 -3 1 C-2.01 0.67 -1.02 0.34 0 0 Z " fill="#2C9ED3" transform="translate(112,160)"/>
<path d="M0 0 C0.66 0 1.32 0 2 0 C3.5078125 1.64453125 3.5078125 1.64453125 5.125 3.8125 C5.66382813 4.52019531 6.20265625 5.22789062 6.7578125 5.95703125 C8 8 8 8 8 11 C4.7 8.03 1.4 5.06 -2 2 C-1.34 1.34 -0.68 0.68 0 0 Z " fill="#24A3D5" transform="translate(336,136)"/>
<path d="M0 0 C-1.75864246 2.1793144 -2.69396 2.93686419 -5.48046875 3.51171875 C-6.82044922 3.59873047 -6.82044922 3.59873047 -8.1875 3.6875 C-9.08855469 3.75324219 -9.98960937 3.81898437 -10.91796875 3.88671875 C-11.60503906 3.92410156 -12.29210937 3.96148437 -13 4 C-9.53474375 0.53474375 -4.80335354 -2.11347556 0 0 Z " fill="#27A2D6" transform="translate(188,89)"/>
<path d="M0 0 C0.99 0.33 1.98 0.66 3 1 C1.90220176 2.15193623 0.79650554 3.29634937 -0.3125 4.4375 C-0.92738281 5.07558594 -1.54226563 5.71367187 -2.17578125 6.37109375 C-4 8 -4 8 -7 9 C-6.25 6.0625 -6.25 6.0625 -5 3 C-2.9375 2.25 -2.9375 2.25 -1 2 C-0.67 1.34 -0.34 0.68 0 0 Z " fill="#25A3D7" transform="translate(323,322)"/>
<path d="M0 0 C1.32 0.33 2.64 0.66 4 1 C1.03 3.97 -1.94 6.94 -5 10 C-5.33 9.34 -5.66 8.68 -6 8 C-5.525625 7.566875 -5.05125 7.13375 -4.5625 6.6875 C-2.76313043 4.97690387 -2.76313043 4.97690387 -2 2 C-1.34 1.34 -0.68 0.68 0 0 Z " fill="#2DA1D7" transform="translate(386,377)"/>
<path d="M0 0 C1 2 1 2 0.5 4.3125 C-1.56679911 8.01551507 -4.46289137 9.77748522 -8 12 C-6.59023295 8.96147295 -4.91129772 6.4060405 -2.875 3.75 C-2.06675781 2.69039063 -2.06675781 2.69039063 -1.2421875 1.609375 C-0.83226562 1.07828125 -0.42234375 0.5471875 0 0 Z " fill="#2AA1D8" transform="translate(371,325)"/>
<path d="M0 0 C1 2 1 2 0.25 5.0625 C-0.1625 6.031875 -0.575 7.00125 -1 8 C-1.99 8.33 -2.98 8.66 -4 9 C-4 9.99 -4 10.98 -4 12 C-4.66 12 -5.32 12 -6 12 C-4.43358249 7.69235185 -2.31663844 3.93828536 0 0 Z " fill="#2D9FD5" transform="translate(81,173)"/>
<path d="M0 0 C1.5 1.1875 1.5 1.1875 3 3 C3.1875 5.6875 3.1875 5.6875 3 8 C2.01 7.67 1.02 7.34 0 7 C-1.1875 4.4375 -1.1875 4.4375 -2 2 C-1.34 2 -0.68 2 0 2 C0 1.34 0 0.68 0 0 Z " fill="#31A4DC" transform="translate(85,384)"/>
<path d="M0 0 C4.47014404 2.50328066 8.76946537 5.1108544 13 8 C12.01 8.495 12.01 8.495 11 9 C8.65234375 8.14453125 8.65234375 8.14453125 5.9375 6.8125 C5.03902344 6.38582031 4.14054688 5.95914062 3.21484375 5.51953125 C1 4 1 4 0.19140625 1.82421875 C0.12824219 1.22222656 0.06507813 0.62023437 0 0 Z " fill="#2AA0CD" transform="translate(207,358)"/>
<path d="M0 0 C0.99 0.33 1.98 0.66 3 1 C3 1.66 3 2.32 3 3 C2.01 3 1.02 3 0 3 C0 3.66 0 4.32 0 5 C-1.98 5.99 -1.98 5.99 -4 7 C-4 4 -4 4 -2 1.8125 C-1.34 1.214375 -0.68 0.61625 0 0 Z " fill="#1CA2DD" transform="translate(221,225)"/>
<path d="M0 0 C2.4375 0.375 2.4375 0.375 5 1 C5.33 1.66 5.66 2.32 6 3 C6.99 4.485 6.99 4.485 8 6 C4.84918025 6 3.58152302 5.72101535 1 4 C0.25 1.875 0.25 1.875 0 0 Z " fill="#15A4DD" transform="translate(344,144)"/>
<path d="M0 0 C2 2 2 2 2.1953125 3.9453125 C2.13020833 5.96354167 2.06510417 7.98177083 2 10 C1.01 10 0.02 10 -1 10 C-1.9765625 3.9453125 -1.9765625 3.9453125 -2 2 C-1.34 1.34 -0.68 0.68 0 0 Z " fill="#10A9ED" transform="translate(70,348)"/>
<path d="M0 0 C1.32 0.99 2.64 1.98 4 3 C3.67 3.99 3.34 4.98 3 6 C3.99 5.67 4.98 5.34 6 5 C5.67 6.98 5.34 8.96 5 11 C0 4.63636364 0 4.63636364 0 0 Z " fill="#2BA0D6" transform="translate(196,299)"/>
<path d="M0 0 C0.78375 0.04125 1.5675 0.0825 2.375 0.125 C-0.20284846 2.77252004 -2.54148098 5.06932065 -5.625 7.125 C-4.53409091 0.21590909 -4.53409091 0.21590909 0 0 Z " fill="#24A1D5" transform="translate(125.625,146.875)"/>
<path d="M0 0 C4.875 4.625 4.875 4.625 6 8 C4.02 7.34 2.04 6.68 0 6 C0 4.02 0 2.04 0 0 Z " fill="#27A2D6" transform="translate(392,135)"/>
<path d="M0 0 C2.96404505 2.80804268 5.44499019 5.18315774 7 9 C5.68 9 4.36 9 3 9 C3 8.01 3 7.02 3 6 C2.34 6 1.68 6 1 6 C0.67 4.02 0.34 2.04 0 0 Z " fill="#23A1D1" transform="translate(185,334)"/>
<path d="M0 0 C0.33 0.66 0.66 1.32 1 2 C2.65 2 4.3 2 6 2 C5.67 2.66 5.34 3.32 5 4 C2.67843403 4.40729228 0.3431213 4.74438677 -2 5 C-1.125 1.125 -1.125 1.125 0 0 Z " fill="#25A0D9" transform="translate(222,203)"/>
<path d="M0 0 C3.08089673 2.77280706 4.68775452 5.06326356 6 9 C5.01 8.67 4.02 8.34 3 8 C3 7.34 3 6.68 3 6 C2.01 5.67 1.02 5.34 0 5 C0 3.35 0 1.7 0 0 Z " fill="#2AA0D5" transform="translate(332,200)"/>
<path d="M0 0 C0.33 0.66 0.66 1.32 1 2 C2.32 1.67 3.64 1.34 5 1 C5 2.32 5 3.64 5 5 C4.401875 4.79375 3.80375 4.5875 3.1875 4.375 C0.71549154 3.69328085 0.71549154 3.69328085 -2 6 C-1.34 4.02 -0.68 2.04 0 0 Z " fill="#1DA0DA" transform="translate(74,185)"/>
<path d="M0 0 C2.66735273 2.48952921 4.55746343 4.63408134 6 8 C5.34 8 4.68 8 4 8 C3.34 8.66 2.68 9.32 2 10 C1.34 6.7 0.68 3.4 0 0 Z " fill="#249FD5" transform="translate(402,148)"/>
<path d="M0 0 C1.65 0 3.3 0 5 0 C1.8745041 2.64465038 -1.08788267 3.84414715 -5 5 C-5 4.01 -5 3.02 -5 2 C-3.35 2 -1.7 2 0 2 C0 1.34 0 0.68 0 0 Z " fill="#2DA2D7" transform="translate(343,409)"/>
<path d="M0 0 C4.04648443 1.34882814 4.95502599 3.34826069 7 7 C6.67 7.99 6.34 8.98 6 10 C4.99421411 8.71283353 3.99553202 7.42011342 3 6.125 C2.443125 5.40570313 1.88625 4.68640625 1.3125 3.9453125 C0 2 0 2 0 0 Z " fill="#33A2D0" transform="translate(143,357)"/>
<path d="M0 0 C0.66 0 1.32 0 2 0 C4 2 4 2 4.125 4.625 C4.08375 5.40875 4.0425 6.1925 4 7 C2.68 7 1.36 7 0 7 C0 4.69 0 2.38 0 0 Z " fill="#0CA3E8" transform="translate(61,324)"/>
<path d="M0 0 C0.33 0.66 0.66 1.32 1 2 C0.22265625 3.7265625 0.22265625 3.7265625 -0.9375 5.625 C-1.618125 6.73875 -2.29875 7.8525 -3 9 C-3.33 9 -3.66 9 -4 9 C-4.25 6.1875 -4.25 6.1875 -4 3 C-2 1.125 -2 1.125 0 0 Z " fill="#2AA1D6" transform="translate(342,298)"/>
<path d="M0 0 C0.33 0.66 0.66 1.32 1 2 C-0.21480305 5.42353587 -2.01771223 7.01180815 -5 9 C-5.66 8.67 -6.32 8.34 -7 8 C-4.69 5.36 -2.38 2.72 0 0 Z " fill="#29A0D5" transform="translate(156,194)"/>
<path d="M0 0 C2.5 2.3125 2.5 2.3125 5 5 C5 5.99 5 6.98 5 8 C4.01 7.34 3.02 6.68 2 6 C1.01 6.495 1.01 6.495 0 7 C0 4.69 0 2.38 0 0 Z " fill="#259ED8" transform="translate(326,192)"/>
<path d="M0 0 C0.99 0.33 1.98 0.66 3 1 C1.86695008 4.39914975 0.87481525 5.05254451 -2 7 C-2.6875 5.1875 -2.6875 5.1875 -3 3 C-1.5625 1.25 -1.5625 1.25 0 0 Z " fill="#16A3DF" transform="translate(308,176)"/>
<path d="M0 0 C-3.26992478 1.88649506 -6.23672696 2.67972144 -10 3 C-10.99 2.34 -11.98 1.68 -13 1 C-8.60563789 0.14256349 -4.47427924 -0.08948558 0 0 Z " fill="#27A0D3" transform="translate(235,156)"/>
<path d="M0 0 C1.32 0.66 2.64 1.32 4 2 C1.03 4.475 1.03 4.475 -2 7 C-1.125 2.25 -1.125 2.25 0 0 Z " fill="#27A1D6" transform="translate(116,153)"/>
<path d="M0 0 C1.32 0.66 2.64 1.32 4 2 C-1.75 7 -1.75 7 -4 7 C-3.67 6.01 -3.34 5.02 -3 4 C-2.01 4 -1.02 4 0 4 C0 2.68 0 1.36 0 0 Z " fill="#2BA3D4" transform="translate(368,392)"/>
<path d="M0 0 C0.66 0 1.32 0 2 0 C2 0.99 2 1.98 2 3 C1.34 3 0.68 3 0 3 C0.66 4.65 1.32 6.3 2 8 C1.01 8.495 1.01 8.495 0 9 C-1.3950848 6.70221327 -2.07438619 5.5207033 -1.6875 2.8125 C-1 1 -1 1 0 0 Z " fill="#0FA3E1" transform="translate(65,339)"/>
<path d="M0 0 C2.475 0.99 2.475 0.99 5 2 C5.33 4.31 5.66 6.62 6 9 C3.59927045 6.11912454 1.52708963 3.43595166 0 0 Z " fill="#2AA3D6" transform="translate(293,228)"/>
<path d="M0 0 C1.231394 2.46278801 1.07159196 4.2795055 1 7 C0.01 7 -0.98 7 -2 7 C-2 7.66 -2 8.32 -2 9 C-2.66 9 -3.32 9 -4 9 C-2.94124926 5.59687262 -1.99097846 2.98646769 0 0 Z " fill="#28A1D7" transform="translate(139,217)"/>
<path d="M0 0 C1 3 1 3 -0.25 5.625 C-2 8 -2 8 -5 9 C-3.7508258 5.54074837 -2.32472205 2.85306797 0 0 Z " fill="#2AA1D4" transform="translate(148,203)"/>
<path d="M0 0 C1.62418745 -0.08090971 3.24951745 -0.13914995 4.875 -0.1875 C5.77992188 -0.22230469 6.68484375 -0.25710937 7.6171875 -0.29296875 C8.79667969 -0.14794922 8.79667969 -0.14794922 10 0 C10.66 0.99 11.32 1.98 12 3 C6.06 2.01 6.06 2.01 0 1 C0 0.67 0 0.34 0 0 Z " fill="#2DA2D0" transform="translate(271,108)"/>
<path d="M0 0 C0.66 0 1.32 0 2 0 C2 0.99 2 1.98 2 3 C2.99 3.33 3.98 3.66 5 4 C4.67 4.99 4.34 5.98 4 7 C3.01 6.67 2.02 6.34 1 6 C0.67 4.02 0.34 2.04 0 0 Z " fill="#13AAE6" transform="translate(77,372)"/>
<path d="M0 0 C1.13643966 3.40931897 0.86747764 4.00335456 -0.4375 7.1875 C-0.86869141 8.26064453 -0.86869141 8.26064453 -1.30859375 9.35546875 C-1.53675781 9.89816406 -1.76492188 10.44085938 -2 11 C-3.21563174 7.05347724 -2.53534125 4.83835312 -1 1 C-0.67 0.67 -0.34 0.34 0 0 Z " fill="#31A0D0" transform="translate(430,313)"/>
<path d="M0 0 C0.33 0 0.66 0 1 0 C1 2.64 1 5.28 1 8 C-0.32 8 -1.64 8 -3 8 C-1.125 2.25 -1.125 2.25 0 0 Z " fill="#26A1DA" transform="translate(380,309)"/>
<path d="M0 0 C0.99 1.32 1.98 2.64 3 4 C1.68 4.99 0.36 5.98 -1 7 C-1.625 5.1875 -1.625 5.1875 -2 3 C-1.34 2.01 -0.68 1.02 0 0 Z " fill="#22A3DE" transform="translate(204,240)"/>
<path d="M0 0 C1.32 0.33 2.64 0.66 4 1 C2.35 2.98 0.7 4.96 -1 7 C-1.66 5.68 -2.32 4.36 -3 3 C-2.01 3 -1.02 3 0 3 C0 2.01 0 1.02 0 0 Z " fill="#22A2D7" transform="translate(100,171)"/>
<path d="M0 0 C2.97 0.495 2.97 0.495 6 1 C5.67 2.98 5.34 4.96 5 7 C2.47411298 4.63707344 1.11179163 3.33537489 0 0 Z " fill="#28A2D4" transform="translate(360,163)"/>
<path d="M0 0 C2.52588702 2.36292656 3.88820837 3.66462511 5 7 C2.37812506 5.95125002 1.20628639 5.35068687 -0.25 2.875 C-0.4975 2.25625 -0.745 1.6375 -1 1 C-0.67 0.67 -0.34 0.34 0 0 Z " fill="#56A8C2" transform="translate(92,396)"/>
<path d="M0 0 C0.33 0 0.66 0 1 0 C1 1.65 1 3.3 1 5 C-0.98 5.33 -2.96 5.66 -5 6 C-3.35830472 3.97945196 -1.69088222 1.97956942 0 0 Z " fill="#289FD0" transform="translate(355,344)"/>
</svg>
